<?xml version="1.0" encoding="utf-8"?>
<!-- Generator: Adobe Illustrator 22.0.1, SVG Export Plug-In . SVG Version: 6.00 Build 0)  -->
<svg version="1.1" id="referencias" xmlns="http://www.w3.org/2000/svg" xmlns:xlink="http://www.w3.org/1999/xlink" x="0px"
	 y="0px" viewBox="0 0 518 180" style="enable-background:new 0 0 518 180;" xml:space="preserve">
<style type="text/css">
	.st0{fill:url(#SVGID_1_);}
	.st1{fill:url(#SVGID_2_);}
	.st2{fill:url(#SVGID_3_);}
	.st3{fill:url(#SVGID_4_);}
	.st4{fill:url(#SVGID_5_);}
	.st5{fill:url(#SVGID_6_);}
	.st6{fill:url(#SVGID_7_);}
	.st7{fill:#303030;}
</style>
<g>
	
		<linearGradient id="SVGID_1_" gradientUnits="userSpaceOnUse" x1="533.22" y1="444.38" x2="237.3007" y2="444.38" gradientTransform="matrix(1 0 0 1 0 -380.38)">
		<stop  offset="0" style="stop-color:#D0101F"/>
		<stop  offset="1" style="stop-color:#FF1321"/>
	</linearGradient>
	<path class="st0" d="M260.4,81.4c-2.7,3.3-6,6-9.9,7.9c-3.9,2-8.1,2.9-12.8,2.9c-4,0-7.8-0.7-11.3-2.2s-6.6-3.5-9.3-6
		c-2.6-2.6-4.6-5.6-6.2-9c-1.5-3.4-2.3-7.1-2.3-11s0.7-7.6,2.3-11s3.6-6.4,6.2-9c2.6-2.6,5.7-4.5,9.3-6s7.3-2.2,11.3-2.2
		c4.6,0,9,0.9,12.8,2.9c3.9,2,7.1,4.5,9.7,7.6l-7.3,7.5c-1.6-2.4-3.8-4.3-6.5-5.8c-2.7-1.4-5.6-2.2-8.8-2.2c-2.6,0-4.9,0.5-7.2,1.4
		s-4.2,2.3-5.9,3.9c-1.6,1.6-3,3.6-4,5.8c-0.9,2.2-1.4,4.5-1.4,7s0.5,4.7,1.4,7c0.9,2.2,2.3,4.1,4,5.8c1.6,1.6,3.6,3,5.9,3.9
		c2.3,0.9,4.6,1.4,7.2,1.4c3.4,0,6.3-0.7,8.9-2.3s4.7-3.5,6.5-6L260.4,81.4z"/>
	<g>
		
			<linearGradient id="SVGID_2_" gradientUnits="userSpaceOnUse" x1="533.22" y1="449.23" x2="237.3007" y2="449.23" gradientTransform="matrix(1 0 0 1 0 -380.38)">
			<stop  offset="0" style="stop-color:#D0101F"/>
			<stop  offset="1" style="stop-color:#FF1321"/>
		</linearGradient>
		<path class="st1" d="M307.2,53c-2.1-2-4.5-3.6-7.2-4.7c-2.8-1.1-5.7-1.8-8.8-1.8s-6.1,0.6-8.8,1.8c-2.8,1.1-5.2,2.7-7.2,4.7
			c-2.1,2-3.7,4.3-4.8,7.1c-1.2,2.7-1.8,5.7-1.8,8.8c0,3.1,0.6,6,1.8,8.8c1.2,2.7,2.9,5,4.8,7c2.1,2,4.5,3.6,7.2,4.7
			c2.8,1.1,5.7,1.8,8.8,1.8s6.1-0.6,8.8-1.8c2.7-1.1,5.2-2.8,7.2-4.7s3.7-4.3,4.8-7.1c1.2-2.7,1.8-5.7,1.8-8.7c0-3.1-0.6-6-1.8-8.8
			C310.9,57.3,309.2,54.9,307.2,53z M303.9,68.7c0,1.6-0.3,3.3-1,4.8c-0.6,1.5-1.5,2.9-2.7,4c-1.1,1.1-2.5,2.1-4,2.8
			c-3.1,1.3-6.8,1.3-9.9,0c-1.5-0.7-2.9-1.6-4-2.8c-1.1-1.1-2.1-2.5-2.7-4s-1-3.2-1-4.8c0-1.8,0.3-3.4,1-4.8c0.6-1.5,1.5-2.9,2.7-4
			s2.5-2.1,4-2.8s3.2-1,4.9-1c1.8,0,3.4,0.3,4.9,1s2.9,1.6,4,2.8c1.1,1.1,2.1,2.5,2.7,4C303.6,65.3,303.9,67,303.9,68.7z"/>
		
			<linearGradient id="SVGID_3_" gradientUnits="userSpaceOnUse" x1="533.22" y1="449.13" x2="237.3007" y2="449.13" gradientTransform="matrix(1 0 0 1 0 -380.38)">
			<stop  offset="0" style="stop-color:#D0101F"/>
			<stop  offset="1" style="stop-color:#FF1321"/>
		</linearGradient>
		<polygon class="st2" points="345.2,71.4 329.4,47.3 318.9,47.3 318.9,90.2 328.8,90.2 328.8,64 345.6,90.2 355,90.2 355,47.3 
			345.2,47.3 		"/>
		
			<linearGradient id="SVGID_4_" gradientUnits="userSpaceOnUse" x1="534.2503" y1="449.03" x2="238.331" y2="449.03" gradientTransform="matrix(1 0 0 1 0 -380.38)">
			<stop  offset="0" style="stop-color:#D0101F"/>
			<stop  offset="1" style="stop-color:#FF1321"/>
		</linearGradient>
		<path class="st3" d="M394.6,75.5c-1.2,1.8-2.7,3.2-4.5,4.2s-3.8,1.5-6.2,1.5c-1.8,0-3.4-0.3-4.9-1s-3-1.6-4.1-2.8
			c-1.1-1.1-2.1-2.5-2.8-4c-0.7-1.5-1-3.1-1-4.8c0-1.8,0.3-3.4,1-4.8c0.7-1.5,1.6-2.9,2.8-4c1.1-1.1,2.6-2.1,4.1-2.8s3.2-1,4.9-1
			c2.2,0,4.2,0.5,6.1,1.5s3.4,2.4,4.5,4l0.7,1l7-7.2l-0.6-0.7c-2.1-2.5-4.5-4.4-7.6-6c-3.1-1.5-6.4-2.3-10.1-2.3
			c-3.2,0-6.2,0.6-9,1.8c-2.8,1.1-5.3,2.7-7.2,4.7c-2.1,2-3.7,4.4-4.8,7.1c-1.2,2.7-1.8,5.7-1.8,8.8s0.6,6,1.8,8.8
			c1.1,2.7,2.8,5,4.8,7s4.5,3.6,7.2,4.7c2.8,1.1,5.8,1.8,9,1.8c3.6,0,7-0.8,10.1-2.3c3-1.5,5.7-3.6,7.7-6.2l0.6-0.7l-7-7.2
			L394.6,75.5z"/>
		
			<linearGradient id="SVGID_5_" gradientUnits="userSpaceOnUse" x1="537.3412" y1="449.23" x2="241.422" y2="449.23" gradientTransform="matrix(1 0 0 1 0 -380.38)">
			<stop  offset="0" style="stop-color:#D0101F"/>
			<stop  offset="1" style="stop-color:#FF1321"/>
		</linearGradient>
		<path class="st4" d="M439.8,86.7c-0.3-0.8-0.6-1.8-1-2.8l-2.2-6.3c-0.2-0.6-0.4-1.2-0.6-1.8c-0.5-1.3-1.2-2.6-2.2-3.6
			c-0.4-0.5-0.9-0.9-1.5-1.3c0.4-0.3,0.9-0.6,1.3-0.9c1-0.8,1.9-1.8,2.6-2.8s1.3-2.2,1.8-3.4c0.4-1.2,0.6-2.5,0.6-3.8
			c0-1.8-0.3-3.5-1-5c-0.6-1.5-1.5-2.9-2.8-4c-1.1-1.1-2.6-2.1-4.2-2.7s-3.4-0.9-5.3-0.9h-17.1v42.9h9.9V73.9h2
			c1.1,0,2.1,0.1,2.8,0.4c0.7,0.3,1.4,0.7,2,1.2s1,1.2,1.4,2s0.8,1.6,1,2.6l3.1,10h11.3l-0.9-1.5C440.4,88,440.1,87.4,439.8,86.7z
			 M418,55.1h4.6c0.8,0,1.5,0.1,2.3,0.4c0.7,0.3,1.3,0.6,1.9,1.1c0.5,0.5,0.9,1,1.2,1.8c0.3,0.6,0.4,1.3,0.4,2.2s-0.1,1.5-0.4,2.2
			c-0.3,0.6-0.7,1.1-1.2,1.6c-0.5,0.4-1.1,0.8-1.9,1c-0.7,0.2-1.5,0.4-2.4,0.4h-4.6V55.1H418z"/>
		
			<linearGradient id="SVGID_6_" gradientUnits="userSpaceOnUse" x1="540.4323" y1="449.13" x2="244.513" y2="449.13" gradientTransform="matrix(1 0 0 1 0 -380.38)">
			<stop  offset="0" style="stop-color:#D0101F"/>
			<stop  offset="1" style="stop-color:#FF1321"/>
		</linearGradient>
		<polygon class="st5" points="447.9,90.2 476.9,90.2 476.9,81.2 457.7,81.2 457.7,72 476.7,72 476.7,63.6 457.7,63.6 457.7,55.9 
			476.9,55.9 476.9,47.3 447.9,47.3 		"/>
		
			<linearGradient id="SVGID_7_" gradientUnits="userSpaceOnUse" x1="545.5839" y1="449.13" x2="249.6646" y2="449.13" gradientTransform="matrix(1 0 0 1 0 -380.38)">
			<stop  offset="0" style="stop-color:#D0101F"/>
			<stop  offset="1" style="stop-color:#FF1321"/>
		</linearGradient>
		<polygon class="st6" points="484.6,47.3 484.6,56.4 495.8,56.4 495.8,90.2 505.9,90.2 505.9,56.4 517.3,56.4 517.3,47.3 		"/>
	</g>
	<g>
		<polygon class="st7" points="64.1,35.7 21.3,35.7 21.3,44.7 37.4,44.7 37.4,92.1 47.8,92.1 47.8,44.7 64.1,44.7 		"/>
		<path class="st7" d="M102.2,71.4c0-13.9-6.8-20.8-20.5-20.8s-20.5,7-20.5,20.8c0.1,13.9,6.9,20.8,20.5,20.8S102.2,85.3,102.2,71.4
			z M91.6,74c0,0.1,0,0.2,0,0.3s0,0.1,0,0.1c0,0.2,0,0.4-0.1,0.6c0,0.2-0.1,0.4-0.1,0.7c0,0.2-0.1,0.4-0.1,0.6s-0.1,0.4-0.1,0.6
			c0,0.1-0.1,0.3-0.1,0.4v0.1c0,0,0,0,0,0.1v0.1c-0.1,0.3-0.2,0.6-0.3,0.9c-0.1,0.2-0.1,0.3-0.2,0.5s-0.1,0.3-0.2,0.5
			s-0.2,0.3-0.3,0.4c-0.1,0.2-0.2,0.3-0.3,0.4c-0.1,0.1-0.2,0.3-0.3,0.4c-0.2,0.3-0.4,0.5-0.6,0.7s-0.5,0.4-0.7,0.6l0,0
			c-0.1,0.1-0.3,0.2-0.4,0.3l0,0c-0.1,0.1-0.2,0.2-0.4,0.2l-0.1,0.1c-0.3,0.2-0.5,0.3-0.8,0.4c-0.2,0.1-0.3,0.1-0.5,0.2
			c-0.3,0.1-0.7,0.2-1,0.3c-0.2,0.1-0.3,0.1-0.5,0.1c-0.4,0.1-0.7,0.1-1.1,0.2c-0.2,0-0.4,0-0.6,0l0,0c-0.1,0-0.2,0-0.3,0
			c-0.1,0-0.2,0-0.3,0s-0.2,0-0.3,0s-0.2,0-0.3,0c-0.2,0-0.4,0-0.6,0s-0.4,0-0.6-0.1c-0.4,0-0.7-0.1-1.1-0.2c-0.3-0.1-0.7-0.2-1-0.3
			c-0.2-0.1-0.3-0.1-0.5-0.2c-0.3-0.1-0.6-0.3-0.8-0.4c0,0-0.1,0-0.1-0.1c-0.1-0.1-0.2-0.1-0.4-0.2c-0.1-0.1-0.3-0.2-0.4-0.3
			c-0.3-0.2-0.5-0.4-0.7-0.6c-0.1-0.1-0.2-0.2-0.3-0.4c-0.1-0.2-0.2-0.3-0.3-0.4c-0.1-0.1-0.2-0.3-0.3-0.4l0,0
			c-0.1-0.2-0.3-0.5-0.4-0.7c-0.1-0.1-0.1-0.2-0.2-0.3c-0.1-0.2-0.2-0.4-0.3-0.6c-0.1-0.3-0.2-0.5-0.3-0.8v-0.1
			c-0.1-0.2-0.1-0.4-0.2-0.7c-0.1-0.3-0.1-0.6-0.2-0.8c0-0.1-0.1-0.3-0.1-0.5c0-0.3-0.1-0.5-0.1-0.8c0-0.1,0-0.2,0-0.3
			c0-0.3-0.1-0.7-0.1-1s-0.1-0.6-0.1-0.9c0-0.2,0-0.4,0-0.6c0-0.3,0-0.6,0-0.9s0-0.5,0-0.8c0-0.2,0-0.5,0-0.7l0,0
			c0-0.2,0-0.5,0.1-0.7c0-0.6,0.1-1.2,0.2-1.8l0,0c0-0.2,0.1-0.3,0.1-0.5S73,66.2,73,66c0.1-0.3,0.1-0.5,0.2-0.7
			c0.1-0.4,0.3-0.8,0.4-1.2c0.1-0.2,0.1-0.3,0.2-0.5c0.1-0.1,0.1-0.2,0.2-0.4c0.3-0.6,0.7-1.1,1.1-1.6c0.1-0.1,0.2-0.2,0.3-0.3
			c0,0,0,0,0.1-0.1s0.1-0.1,0.2-0.2c0.1-0.1,0.1-0.1,0.2-0.2l0.1-0.1c0.2-0.1,0.3-0.3,0.5-0.4c0.3-0.2,0.5-0.4,0.8-0.5
			c0.3-0.2,0.6-0.3,0.9-0.4c1.2-0.5,2.7-0.8,4.4-0.8c0.3,0,0.7,0,1,0l0,0c0.1,0,0.1,0,0.2,0c0.2,0,0.3,0,0.5,0.1c0.1,0,0.2,0,0.3,0
			l0,0l0,0c0.3,0,0.5,0.1,0.7,0.1c0.1,0,0.1,0,0.2,0l0,0c0.1,0,0.2,0.1,0.3,0.1c0.1,0,0.2,0.1,0.3,0.1c0.1,0,0.2,0,0.2,0.1h0.1
			c0.2,0.1,0.4,0.1,0.5,0.2l0,0c0.1,0.1,0.3,0.1,0.4,0.2c0.1,0.1,0.2,0.1,0.4,0.2c0.2,0.1,0.5,0.3,0.7,0.5s0.4,0.3,0.6,0.5
			s0.4,0.5,0.6,0.7c0.1,0.1,0.2,0.3,0.3,0.4c0.1,0.1,0.2,0.3,0.3,0.4s0.2,0.3,0.3,0.4c0.1,0.1,0.2,0.3,0.2,0.5
			c0.1,0.2,0.2,0.3,0.2,0.5c0.1,0.3,0.3,0.6,0.4,1c0,0,0,0.1,0.1,0.2c0,0.2,0.1,0.3,0.1,0.5c0.1,0.4,0.2,0.8,0.3,1.2l0,0
			c0,0.2,0.1,0.4,0.1,0.6s0.1,0.3,0.1,0.5v0.1c0,0.1,0,0.1,0,0.2c0.1,0.9,0.2,1.9,0.2,2.9C91.7,72.2,91.7,73.2,91.6,74z"/>
		<path class="st7" d="M133.9,82.2c-0.6,0.4-0.4,1.2,0.3,1.5c3.2,1.3,5.7,2.7,8.3,3.8c0.3,0.1,0.7,0.1,1-0.2c3.1-3.6,5.4-9.9,5.4-17
			c0-13.2-7-19.7-21.1-19.7c-5.9,0-11.4,0.5-16.8,1.5c-0.4,0.1-0.7,0.4-0.7,0.8v39.7c0,0.2,0,0.3,0.1,0.4h-0.1v2.6
			c-0.4,0.1-0.9,0.2-1.3,0.3c-7.9,2.4-13.3,6.9-13.3,12.2c0,6,7,11,16.9,13c-6.5,1.6-10.9,5.2-10.9,9.1c0,4.8,6.5,8.9,15.1,9.9
			c-6.5,1.1-11.1,4.3-11.1,8.2c0,3.8,4.5,7,10.7,8.1v9.9c0,0.1,0,0.1,0.1,0.2l3.8,6.3c0.2,0.3,0.6,0.2,0.6-0.2v-15.8v-0.6v-1.9V144
			c0.3,0,0.5,0,0.8,0l0,0c5.9,0,10.6,2.3,10.6,5.2c0,1.2-0.8,2.3-2.3,3.2c-0.1,0-0.1,0.1-0.1,0.2v2.8c0,0.2,0.2,0.3,0.3,0.2
			c4.5-1.5,7.6-4.2,7.6-7.3c0-4.7-7.2-8.7-16.2-8.7H121c-0.2,0-0.3,0-0.5,0v-2.4V125c0.2,0,0.3,0,0.5,0h0.1c7.2,0,13,2.7,13,6.1
			c0,1.4-1,2.7-2.7,3.7c-0.1,0.1-0.1,0.1-0.1,0.2v3.3c0,0.2,0.2,0.3,0.4,0.3c5.6-1.8,9.4-5,9.4-8.7c0-5.7-8.9-10.2-19.9-10.2H121
			c-0.2,0-0.3,0-0.5,0v-2.2V107l0,0v-5.8c0.2,0,0.3,0,0.5,0h0.1c9.3,0,16.9,3.7,16.9,8.2c0,2-1.3,3.7-3.5,5
			c-0.1,0.1-0.2,0.2-0.2,0.3v4.5c0,0.3,0.3,0.4,0.5,0.3c7.3-2.5,12.1-6.8,12.1-11.7c0-7.6-11.3-13.7-25.4-13.8h-0.4
			c-0.2,0-0.3,0-0.5,0V60c0-0.4,0.3-0.8,0.7-0.8c1.9-0.3,4.1-0.4,6.7-0.4c6.9,0,10.3,3.7,10.3,11.1
			C138.3,76.4,136.9,80.4,133.9,82.2z"/>
		<path class="st7" d="M175.2,50.6c-13.7,0-20.5,7-20.5,20.8c0,13.9,6.9,20.8,20.5,20.8c13.7,0,20.5-6.9,20.5-20.8
			S188.9,50.6,175.2,50.6z M165.2,68.4c0-0.2,0-0.3,0.1-0.5c0,0.3-0.1,0.5-0.1,0.8C165.2,68.6,165.2,68.5,165.2,68.4L165.2,68.4z
			 M165.5,66.8c0-0.1,0-0.2,0.1-0.3c-0.1,0.2-0.1,0.5-0.1,0.7C165.4,67.1,165.4,67,165.5,66.8z M165.1,70c0,0.3,0,0.5,0,0.8
			c0-0.2,0-0.3,0-0.5C165.1,70.2,165.1,70.1,165.1,70z M165.1,71.7c0,0.3,0,0.5,0,0.8c0-0.1,0-0.2,0-0.3S165.1,71.9,165.1,71.7z
			 M165.2,73.8c0,0.2,0,0.4,0.1,0.6c0-0.1,0-0.2,0-0.3C165.2,74,165.2,73.9,165.2,73.8z M165.4,75.5c0,0.2,0.1,0.4,0.1,0.6
			c0-0.1,0-0.2-0.1-0.3C165.5,75.7,165.4,75.6,165.4,75.5z M182.1,81.8c-0.2,0.2-0.5,0.4-0.7,0.6c-1.5,1.2-3.6,1.9-6.2,1.9
			c-1.9,0-3.5-0.3-4.8-1c-0.4-0.2-0.9-0.5-1.2-0.8c-0.2-0.2-0.4-0.3-0.5-0.5c-0.1,0-0.1-0.1-0.2-0.2c-0.3-0.3-0.7-0.7-1-1.2
			c-0.3-0.4-0.5-0.9-0.8-1.4c-0.1-0.3-0.3-0.7-0.4-1c-0.1-0.2-0.1-0.5-0.2-0.7c0-0.1,0-0.2-0.1-0.3c0.1,0.3,0.2,0.7,0.3,1
			c-0.1-0.3-0.2-0.7-0.3-1.1c-0.1-0.2-0.1-0.5-0.2-0.7c-0.1-0.3-0.1-0.6-0.2-0.9c0-0.2-0.1-0.4-0.1-0.6c0-0.4-0.1-0.7-0.1-1.1
			c0-0.2,0-0.4,0-0.6c0-0.5,0-1,0-1.6c0-0.5,0-1,0-1.5c0-0.2,0-0.4,0-0.7c0.1-0.9,0.2-1.9,0.4-2.7c0.1-0.2,0.1-0.5,0.2-0.7
			c0.1-0.4,0.2-0.7,0.3-1c-0.1,0.3-0.2,0.6-0.3,0.9c0-0.1,0-0.2,0.1-0.3c0.1-0.2,0.1-0.5,0.2-0.7c0.1-0.4,0.3-0.7,0.4-1
			c0.2-0.5,0.5-0.9,0.8-1.3c0.1-0.2,0.3-0.4,0.5-0.6l0,0c0.2-0.2,0.3-0.4,0.5-0.5c0.2-0.2,0.5-0.4,0.7-0.6c0.3-0.2,0.5-0.4,0.8-0.5
			l0,0c0.3-0.2,0.6-0.3,0.9-0.4c1.2-0.5,2.7-0.8,4.4-0.8c1.6,0,3.2,0.3,4.4,0.8c0.3,0.1,0.6,0.3,0.9,0.4c0.3,0.2,0.5,0.3,0.8,0.5
			c2.6,2,3.9,5.6,3.9,10.9C185.3,76.1,184.1,79.7,182.1,81.8z"/>
	</g>
	<g>
		<g>
			<path class="st7" d="M75.2,120H14.1c-7.4,0-13.4-6-13.4-13.4V21.1c0-7.4,6-13.4,13.4-13.4h172.7c7.4,0,13.4,6,13.4,13.4v11.6
				c0,0.7-0.6,1.4-1.4,1.4h-6.5c-0.7,0-1.4-0.6-1.4-1.4V21.1c0-2.3-1.9-4.1-4.1-4.1H14.1c-2.3,0-4.1,1.9-4.1,4.1v85.5
				c0,2.3,1.9,4.1,4.1,4.1h61.1c0.7,0,1.4,0.6,1.4,1.4v6.5C76.6,119.4,76,120,75.2,120z"/>
		</g>
	</g>
</g>
</svg>
