<?xml version="1.0" encoding="utf-8"?>
<!-- Generator: Adobe Illustrator 22.0.1, SVG Export Plug-In . SVG Version: 6.00 Build 0)  -->
<svg version="1.1" id="referencias" xmlns="http://www.w3.org/2000/svg" xmlns:xlink="http://www.w3.org/1999/xlink" x="0px"
	 y="0px" viewBox="0 0 518 180" style="enable-background:new 0 0 518 180;" xml:space="preserve">
<style type="text/css">
	.st0{fill:#FFFFFF;}
</style>
<path class="st0" d="M261.2,83.8c-2.7,3.3-6,6-9.9,8s-8.2,2.9-12.8,2.9c-4,0-7.9-0.7-11.4-2.2s-6.6-3.5-9.3-6
	c-2.6-2.6-4.7-5.6-6.2-9c-1.6-3.4-2.3-7.1-2.3-11.1s0.7-7.7,2.3-11.1c1.6-3.4,3.6-6.4,6.2-9c2.6-2.6,5.7-4.5,9.3-6
	c3.6-1.4,7.3-2.2,11.4-2.2c4.7,0,9,0.9,12.8,2.9c3.9,2,7.1,4.5,9.7,7.7l-7.3,7.5c-1.7-2.4-3.8-4.3-6.5-5.8s-5.6-2.2-8.8-2.2
	c-2.6,0-5,0.5-7.2,1.4c-2.3,0.9-4.2,2.3-5.9,3.9c-1.7,1.7-3,3.6-4,5.8c-0.9,2.2-1.4,4.5-1.4,7c0,2.5,0.5,4.8,1.4,7s2.3,4.1,4,5.8
	c1.7,1.7,3.6,3,5.9,3.9c2.3,0.9,4.7,1.4,7.2,1.4c3.4,0,6.3-0.7,8.9-2.3c2.6-1.6,4.8-3.5,6.5-6L261.2,83.8z"/>
<g>
	<path class="st0" d="M308,55.5c-2.1-2-4.5-3.6-7.2-4.7c-2.8-1.1-5.7-1.7-8.7-1.7s-6.1,0.6-8.7,1.7c-2.8,1.1-5.1,2.7-7.2,4.7
		s-3.7,4.3-4.8,7.1c-1.2,2.7-1.7,5.7-1.7,8.7s0.6,6,1.7,8.7c1.2,2.7,2.9,5,4.8,7c2.1,2,4.5,3.6,7.2,4.7c2.8,1.1,5.7,1.7,8.7,1.7
		s6.1-0.6,8.7-1.7c2.7-1.1,5.1-2.8,7.2-4.7c2.1-2,3.7-4.3,4.8-7.1c1.2-2.7,1.7-5.7,1.7-8.6c0-3.1-0.6-6-1.7-8.7
		C311.7,59.8,310.1,57.4,308,55.5z M304.7,71.2c0,1.6-0.3,3.3-1,4.8c-0.6,1.5-1.5,2.9-2.7,4c-1.1,1.1-2.5,2.1-4,2.8
		c-3.1,1.3-6.8,1.3-9.9,0c-1.5-0.7-2.9-1.6-4-2.8c-1.1-1.1-2.1-2.5-2.7-4s-1-3.2-1-4.8c0-1.7,0.3-3.4,1-4.8c0.6-1.5,1.5-2.9,2.7-4
		c1.1-1.1,2.5-2.1,4-2.8s3.2-1,4.9-1c1.7,0,3.4,0.3,4.9,1s2.9,1.6,4,2.8c1.1,1.1,2.1,2.5,2.7,4C304.4,67.8,304.7,69.4,304.7,71.2z"
		/>
	<polygon class="st0" points="346,73.9 330.2,49.8 319.7,49.8 319.7,92.6 329.6,92.6 329.6,66.5 346.4,92.6 355.7,92.6 355.7,49.8 
		346,49.8 	"/>
	<path class="st0" d="M395.3,78c-1.2,1.7-2.7,3.2-4.5,4.2c-1.7,1-3.8,1.5-6.2,1.5c-1.7,0-3.4-0.3-4.9-1s-3-1.6-4.1-2.8
		c-1.1-1.1-2.1-2.5-2.8-4s-1-3.1-1-4.8s0.3-3.4,1-4.8c0.7-1.5,1.6-2.9,2.8-4c1.1-1.1,2.6-2.1,4.1-2.8s3.2-1,4.9-1
		c2.2,0,4.2,0.5,6.1,1.5s3.4,2.4,4.5,4l0.7,1l7-7.2l-0.6-0.7c-2.1-2.5-4.5-4.4-7.6-6s-6.4-2.3-10.1-2.3c-3.2,0-6.2,0.6-9,1.7
		c-2.8,1.1-5.2,2.7-7.2,4.7c-2.1,2-3.7,4.4-4.8,7.1c-1.2,2.7-1.7,5.7-1.7,8.7c0,3.1,0.6,6,1.7,8.7s2.8,5,4.8,7
		c2.1,2,4.5,3.6,7.2,4.7c2.8,1.1,5.8,1.7,9,1.7c3.6,0,7-0.8,10.1-2.3c3-1.5,5.7-3.6,7.7-6.2l0.6-0.7l-7-7.2L395.3,78z"/>
	<path class="st0" d="M440.4,89.1c-0.3-0.8-0.6-1.7-1-2.8l-2.2-6.3c-0.2-0.6-0.4-1.2-0.6-1.7c-0.5-1.3-1.2-2.6-2.2-3.6
		c-0.4-0.5-0.9-0.9-1.5-1.3c0.4-0.3,0.9-0.6,1.3-0.9c1-0.8,1.9-1.7,2.6-2.8s1.3-2.2,1.7-3.4s0.6-2.5,0.6-3.8c0-1.7-0.3-3.5-1-5
		c-0.6-1.5-1.5-2.9-2.8-4c-1.1-1.1-2.6-2.1-4.2-2.7c-1.6-0.6-3.4-0.9-5.2-0.9h-17.1v42.8h9.9V76.3h2c1.1,0,2.1,0.1,2.8,0.4
		s1.4,0.7,2,1.2c0.5,0.5,1,1.2,1.4,2s0.8,1.6,1,2.6l3.1,10h11.3l-0.9-1.5C441,90.4,440.7,89.8,440.4,89.1z M418.7,57.6h4.6
		c0.8,0,1.5,0.1,2.3,0.4c0.7,0.3,1.3,0.6,1.9,1.1s0.9,1,1.2,1.7c0.3,0.6,0.4,1.3,0.4,2.2c0,0.8-0.1,1.5-0.4,2.2
		c-0.3,0.6-0.7,1.1-1.2,1.6c-0.5,0.4-1.1,0.8-1.9,1c-0.7,0.2-1.5,0.4-2.4,0.4h-4.6V57.6H418.7z"/>
	<polygon class="st0" points="448.5,92.6 477.5,92.6 477.5,83.6 458.3,83.6 458.3,74.5 477.2,74.5 477.2,66.1 458.3,66.1 
		458.3,58.3 477.5,58.3 477.5,49.8 448.5,49.8 	"/>
	<polygon class="st0" points="485.2,49.8 485.2,58.8 496.4,58.8 496.4,92.6 506.5,92.6 506.5,58.8 517.8,58.8 517.8,49.8 	"/>
</g>
<g>
	<polygon class="st0" points="64.3,37.9 21.2,37.9 21.2,47 37.5,47 37.5,94.6 47.9,94.6 47.9,47 64.3,47 	"/>
	<path class="st0" d="M102.5,73.8c0-14-6.8-20.9-20.6-20.9s-20.6,7-20.6,20.9c0.1,14,6.9,20.9,20.6,20.9
		C95.6,94.7,102.5,87.7,102.5,73.8z M91.9,76.4c0,0.1,0,0.2,0,0.3s0,0.1,0,0.1c0,0.2,0,0.4-0.1,0.6c0,0.2-0.1,0.4-0.1,0.7
		c0,0.2-0.1,0.4-0.1,0.6s-0.1,0.4-0.1,0.6c0,0.1-0.1,0.3-0.1,0.4v0.1c0,0,0,0,0,0.1V80c-0.1,0.3-0.2,0.6-0.3,0.9
		c-0.1,0.2-0.1,0.3-0.2,0.5s-0.1,0.3-0.2,0.5s-0.2,0.3-0.3,0.4c-0.1,0.2-0.2,0.3-0.3,0.4s-0.2,0.3-0.3,0.4c-0.2,0.3-0.4,0.5-0.6,0.7
		s-0.5,0.4-0.7,0.6l0,0c-0.1,0.1-0.3,0.2-0.4,0.3l0,0c-0.1,0.1-0.2,0.2-0.4,0.2L87.6,85c-0.3,0.2-0.5,0.3-0.8,0.4
		c-0.2,0.1-0.3,0.1-0.5,0.2c-0.3,0.1-0.7,0.2-1,0.3C85.1,86,85,86,84.8,86c-0.4,0.1-0.7,0.1-1.1,0.2c-0.2,0-0.4,0-0.6,0l0,0
		c-0.1,0-0.2,0-0.3,0s-0.2,0-0.3,0c-0.1,0-0.2,0-0.3,0c-0.1,0-0.2,0-0.3,0c-0.2,0-0.4,0-0.6,0s-0.4,0-0.6-0.1
		c-0.4,0-0.7-0.1-1.1-0.2c-0.3-0.1-0.7-0.2-1-0.3c-0.2-0.1-0.3-0.1-0.5-0.2c-0.3-0.1-0.6-0.3-0.8-0.4c0,0-0.1,0-0.1-0.1
		c-0.1-0.1-0.2-0.1-0.4-0.2c-0.1-0.1-0.3-0.2-0.4-0.3c-0.3-0.2-0.5-0.4-0.7-0.6c-0.1-0.1-0.2-0.2-0.3-0.4c-0.1-0.2-0.2-0.3-0.3-0.4
		s-0.2-0.3-0.3-0.4l0,0c-0.1-0.2-0.3-0.5-0.4-0.7c-0.1-0.1-0.1-0.2-0.2-0.3c-0.1-0.2-0.2-0.4-0.3-0.6c-0.1-0.3-0.2-0.5-0.3-0.8v-0.1
		c-0.1-0.2-0.1-0.4-0.2-0.7c-0.1-0.3-0.1-0.6-0.2-0.8c0-0.1-0.1-0.3-0.1-0.5c0-0.3-0.1-0.5-0.1-0.8c0-0.1,0-0.2,0-0.3
		c0-0.3-0.1-0.7-0.1-1s-0.1-0.6-0.1-0.9c0-0.2,0-0.4,0-0.6c0-0.3,0-0.6,0-0.9s0-0.5,0-0.8c0-0.2,0-0.5,0-0.7l0,0
		c0-0.2,0-0.5,0.1-0.7c0-0.6,0.1-1.2,0.2-1.8l0,0c0-0.2,0.1-0.3,0.1-0.5s0.1-0.5,0.1-0.7c0.1-0.3,0.1-0.5,0.2-0.7
		c0.1-0.4,0.3-0.8,0.4-1.2c0.1-0.2,0.1-0.3,0.2-0.5c0.1-0.1,0.1-0.2,0.2-0.4c0.3-0.6,0.7-1.1,1.1-1.7c0.1-0.1,0.2-0.2,0.3-0.3
		c0,0,0,0,0.1-0.1s0.1-0.1,0.2-0.2c0.1-0.1,0.1-0.1,0.2-0.2l0.1-0.1c0.2-0.1,0.3-0.3,0.5-0.4c0.3-0.2,0.5-0.4,0.8-0.5
		c0.3-0.2,0.6-0.3,0.9-0.4c1.2-0.5,2.7-0.8,4.4-0.8c0.3,0,0.7,0,1,0l0,0c0.1,0,0.1,0,0.2,0c0.2,0,0.3,0,0.5,0.1c0.1,0,0.2,0,0.3,0
		l0,0l0,0c0.3,0,0.5,0.1,0.7,0.1c0.1,0,0.1,0,0.2,0l0,0c0.1,0,0.2,0.1,0.3,0.1c0.1,0,0.2,0.1,0.3,0.1c0.1,0,0.2,0,0.2,0.1h0.1
		c0.2,0.1,0.4,0.1,0.5,0.2l0,0c0.1,0.1,0.3,0.1,0.4,0.2c0.1,0.1,0.2,0.1,0.4,0.2s0.5,0.3,0.7,0.5s0.4,0.3,0.6,0.5s0.4,0.5,0.6,0.7
		c0.1,0.1,0.2,0.3,0.3,0.4c0.1,0.1,0.2,0.3,0.3,0.4c0.1,0.1,0.2,0.3,0.3,0.4c0.1,0.1,0.2,0.3,0.2,0.5c0.1,0.2,0.2,0.3,0.2,0.5
		c0.1,0.3,0.3,0.6,0.4,1c0,0,0,0.1,0.1,0.2c0,0.2,0.1,0.3,0.1,0.5c0.1,0.4,0.2,0.8,0.3,1.2l0,0c0,0.2,0.1,0.4,0.1,0.6
		s0.1,0.3,0.1,0.5V70c0,0.1,0,0.1,0,0.2c0.1,0.9,0.2,1.9,0.2,2.9C92,74.6,92,75.5,91.9,76.4z"/>
	<path class="st0" d="M134.3,84.6c-0.6,0.4-0.4,1.2,0.3,1.6c3.2,1.3,5.7,2.7,8.4,3.8c0.3,0.1,0.7,0.1,1-0.2
		c3.1-3.6,5.4-9.9,5.4-17.1c0-13.2-7-19.8-21.2-19.8c-5.9,0-11.5,0.5-16.9,1.6c-0.4,0.1-0.7,0.4-0.7,0.8v39.8c0,0.2,0,0.3,0.1,0.4
		h-0.1v2.6c-0.4,0.1-0.9,0.2-1.3,0.3c-8,2.4-13.3,6.9-13.3,12.2c0,6,7,11.1,17,13c-6.5,1.7-11,5.2-11,9.1c0,4.9,6.5,8.9,15.2,9.9
		c-6.5,1.1-11.2,4.3-11.2,8.3c0,3.8,4.5,7,10.8,8.2v9.9c0,0.1,0,0.1,0.1,0.2l3.8,6.3c0.2,0.3,0.6,0.2,0.6-0.2v-15.8V159v-1.9v-10.3
		c0.3,0,0.5,0,0.8,0l0,0c5.9,0,10.7,2.3,10.7,5.2c0,1.2-0.8,2.3-2.3,3.2c-0.1,0-0.1,0.1-0.1,0.2v2.8c0,0.2,0.2,0.3,0.3,0.2
		c4.5-1.6,7.7-4.2,7.7-7.3c0-4.8-7.2-8.7-16.2-8.7h-0.6c-0.2,0-0.3,0-0.5,0V140v-12.2c0.2,0,0.3,0,0.5,0h0.1c7.2,0,13,2.7,13,6.1
		c0,1.4-1,2.7-2.7,3.7c-0.1,0.1-0.1,0.1-0.1,0.2v3.3c0,0.2,0.2,0.3,0.4,0.3c5.6-1.8,9.4-5.1,9.4-8.7c0-5.7-8.9-10.2-20-10.2h-0.2
		c-0.2,0-0.3,0-0.5,0v-2.2v-10.9l0,0v-5.8c0.2,0,0.3,0,0.5,0h0.1c9.3,0,17,3.7,17,8.3c0,2-1.3,3.7-3.5,5.1c-0.1,0.1-0.2,0.2-0.2,0.3
		v4.5c0,0.3,0.3,0.4,0.5,0.3c7.3-2.5,12.1-6.8,12.1-11.8c0-7.7-11.4-13.8-25.5-13.9h-0.4c-0.2,0-0.3,0-0.5,0v-34
		c0-0.4,0.3-0.8,0.7-0.8c1.9-0.3,4.1-0.4,6.7-0.4c6.9,0,10.3,3.7,10.3,11.2C138.7,78.7,137.3,82.8,134.3,84.6z"/>
	<path class="st0" d="M175.7,52.9c-13.8,0-20.6,7-20.6,20.9c0,14,6.9,20.9,20.6,20.9c13.8,0,20.6-6.9,20.6-20.9
		S189.5,52.9,175.7,52.9z M165.7,70.8c0-0.2,0-0.3,0.1-0.5c0,0.3-0.1,0.5-0.1,0.8C165.7,71,165.7,70.9,165.7,70.8L165.7,70.8z
		 M166,69.1c0-0.1,0-0.2,0.1-0.3c-0.1,0.2-0.1,0.5-0.1,0.7C165.9,69.4,165.9,69.3,166,69.1z M165.6,72.3c0,0.3,0,0.5,0,0.8
		c0-0.2,0-0.3,0-0.5C165.6,72.5,165.6,72.4,165.6,72.3z M165.6,74.1c0,0.3,0,0.5,0,0.8c0-0.1,0-0.2,0-0.3S165.6,74.3,165.6,74.1z
		 M165.7,76.2c0,0.2,0,0.4,0.1,0.6c0-0.1,0-0.2,0-0.3C165.7,76.4,165.7,76.3,165.7,76.2z M165.9,77.9c0,0.2,0.1,0.4,0.1,0.6
		c0-0.1,0-0.2-0.1-0.3C166,78.1,165.9,78,165.9,77.9z M182.7,84.2c-0.2,0.2-0.5,0.4-0.7,0.6c-1.6,1.2-3.6,1.9-6.2,1.9
		c-1.9,0-3.5-0.3-4.9-1c-0.4-0.2-0.9-0.5-1.2-0.8c-0.2-0.2-0.4-0.3-0.5-0.5c-0.1,0-0.1-0.1-0.2-0.2c-0.3-0.3-0.7-0.7-1-1.2
		c-0.3-0.4-0.5-0.9-0.8-1.4c-0.1-0.3-0.3-0.7-0.4-1c-0.1-0.2-0.1-0.5-0.2-0.7c0-0.1,0-0.2-0.1-0.3c0.1,0.3,0.2,0.7,0.3,1
		c-0.1-0.3-0.2-0.7-0.3-1.1c-0.1-0.2-0.1-0.5-0.2-0.7c-0.1-0.3-0.1-0.6-0.2-0.9c0-0.2-0.1-0.4-0.1-0.6c0-0.4-0.1-0.7-0.1-1.1
		c0-0.2,0-0.4,0-0.6c0-0.5,0-1,0-1.7c0-0.5,0-1,0-1.6c0-0.2,0-0.4,0-0.7c0.1-0.9,0.2-1.9,0.4-2.7c0.1-0.2,0.1-0.5,0.2-0.7
		c0.1-0.4,0.2-0.7,0.3-1c-0.1,0.3-0.2,0.6-0.3,0.9c0-0.1,0-0.2,0.1-0.3c0.1-0.2,0.1-0.5,0.2-0.7c0.1-0.4,0.3-0.7,0.4-1
		c0.2-0.5,0.5-0.9,0.8-1.3c0.1-0.2,0.3-0.4,0.5-0.6l0,0c0.2-0.2,0.3-0.4,0.5-0.5c0.2-0.2,0.5-0.4,0.7-0.6c0.3-0.2,0.5-0.4,0.8-0.5
		l0,0c0.3-0.2,0.6-0.3,0.9-0.4c1.2-0.5,2.7-0.8,4.4-0.8s3.2,0.3,4.4,0.8c0.3,0.1,0.6,0.3,0.9,0.4c0.3,0.2,0.5,0.3,0.8,0.5
		c2.6,2,3.9,5.6,3.9,11C185.9,78.5,184.7,82,182.7,84.2z"/>
</g>
<g>
	<g>
		<path class="st0" d="M75.4,122.6H14.1c-7.4,0-13.4-6-13.4-13.4V23.3c0-7.4,6-13.4,13.4-13.4h173.3c7.4,0,13.4,6,13.4,13.4V35
			c0,0.7-0.6,1.4-1.4,1.4h-6.5c-0.7,0-1.4-0.6-1.4-1.4V23.3c0-2.3-1.9-4.1-4.1-4.1H14.1c-2.3,0-4.1,1.9-4.1,4.1v85.8
			c0,2.3,1.9,4.1,4.1,4.1h61.3c0.7,0,1.4,0.6,1.4,1.4v6.5C76.8,122,76.2,122.6,75.4,122.6z"/>
	</g>
</g>
</svg>
